<?xml version="1.0" encoding="UTF-8" standalone="no"?>
<svg xmlns="http://www.w3.org/2000/svg" version="1.1" viewBox="0 0 496.19334 496.19139" height="140.03624mm" width="140.03679mm">
  <g id="icon-logo">
    <path id="icon-logo-gear" d="m 238.49805,0 -5.39063,19.4043 -0.17578,3.5 1.04883,15.58203 -26.5,3.48828 -3.01953,-15.32227 -1.07617,-3.33593 -10.22852,-17.34766 -18.54297,4.96875 -0.18555,20.13867 0.73633,3.42774 5.04688,14.77734 -24.69336,10.22851 -6.88281,-14.01757 -1.90235,-2.94336 -14.37109,-14.10938 -16.625,9.59766 5.0332,19.5 1.59766,3.12109 8.69922,12.96875 -21.20508,16.27149 -10.27539,-11.75977 -2.59961,-2.35156 -17.53321,-9.9082 -13.57421,13.57421 9.9082,17.53125 2.35156,2.60157 11.75977,10.27539 -16.27149,21.20508 -12.96875,-8.69922 -3.12109,-1.59766 -19.49805,-5.0332 -9.59961,16.62304 14.10938,14.3711 2.94336,1.90429 14.01953,6.88086 -10.22852,24.69336 -14.77929,-5.04492 -3.42774,-0.73633 -20.13672,0.18555 -4.96875,18.54102 17.34766,10.23046 3.33594,1.07618 15.32226,3.01953 -3.49023,26.5 -15.58008,-1.05078 -3.50195,0.17773 L 0,238.49805 l 0,19.19531 19.4043,5.39258 3.50195,0.17578 15.58008,-1.04883 3.49023,26.49805 -15.32226,3.01953 -3.33594,1.07617 -17.34766,10.23047 4.96875,18.54101 20.13672,0.18555 3.42774,-0.73437 14.77929,-5.04688 10.22852,24.69336 -14.01953,6.88281 -2.94336,1.90235 -14.10938,14.37109 9.59961,16.625 19.49805,-5.0332 3.12109,-1.59766 12.96875,-8.70117 16.27149,21.20508 -11.75977,10.27734 -2.35156,2.59961 -9.9082,17.5332 13.57421,13.57227 17.53321,-9.9082 2.59961,-2.34961 10.27539,-11.75977 21.20508,16.26953 -8.69922,12.9707 -1.59766,3.11915 -5.0332,19.5 16.625,9.59765 14.37109,-14.10742 1.90235,-2.94531 6.88281,-14.01758 24.69336,10.22851 -5.04688,14.7793 -0.73633,3.42774 0.18555,20.13672 18.54297,4.96874 10.22852,-17.34765 1.07617,-3.33594 3.01953,-15.32226 26.5,3.48828 -1.04883,15.58203 0.17578,3.50195 5.39063,19.40235 19.19726,0 5.39063,-19.40235 0.17578,-3.50195 -1.04883,-15.58203 26.5,-3.48828 3.01953,15.32226 1.07617,3.33594 10.22852,17.34765 18.54297,-4.96874 0.18554,-20.13672 -0.73632,-3.42774 -5.04688,-14.7793 24.69336,-10.22851 6.88281,14.01758 1.9043,2.94531 14.36914,14.10742 16.625,-9.59765 -5.0332,-19.5 -1.59766,-3.11915 -8.69922,-12.9707 21.20508,-16.26953 10.27539,11.75977 2.59961,2.34961 17.5332,9.9082 13.57422,-13.57227 -9.9082,-17.5332 -2.35156,-2.59961 -11.75977,-10.27734 16.27149,-21.20508 12.96875,8.70117 3.12109,1.59766 19.5,5.0332 9.59766,-16.625 -14.10938,-14.37109 -2.94336,-1.90235 -14.01953,-6.88281 10.22852,-24.69336 14.77929,5.04688 3.42774,0.73437 20.13867,-0.18555 4.9668,-18.54101 -17.34571,-10.23047 -3.33789,-1.07617 -15.32031,-3.01953 3.48828,-26.49805 15.58008,1.04883 3.50195,-0.17578 19.4043,-5.39258 0,-19.19531 -19.4043,-5.39063 -3.50195,-0.17773 -15.58008,1.05078 -3.48828,-26.5 15.32031,-3.01953 3.33789,-1.07618 17.34571,-10.23046 -4.9668,-18.54102 -20.13867,-0.18555 -3.42774,0.73633 -14.77929,5.04492 -10.22852,-24.69336 14.01953,-6.88086 2.94336,-1.90429 14.10938,-14.3711 -9.59766,-16.62304 -19.5,5.0332 -3.12109,1.59766 -12.96875,8.69922 -16.27149,-21.20508 11.75977,-10.27539 2.35156,-2.60157 9.9082,-17.53125 -13.57422,-13.57421 -17.5332,9.9082 -2.59961,2.35156 -10.27539,11.75977 -21.20508,-16.27149 8.69922,-12.96875 1.59766,-3.12109 5.0332,-19.5 -16.625,-9.59766 -14.36914,14.10938 -1.9043,2.94336 -6.88281,14.01757 -24.69336,-10.22851 5.04688,-14.77734 0.73632,-3.42774 -0.18554,-20.13867 -18.54297,-4.96875 -10.22852,17.34766 -1.07617,3.33593 -3.01953,15.32227 -26.5,-3.48828 1.04883,-15.58203 -0.17578,-3.5 L 257.69531,0 238.49805,0 Z m 9.59961,84.36328 A 163.73198,163.73198 0 0 1 411.82812,248.0957 163.73198,163.73198 0 0 1 248.09766,411.82812 163.73198,163.73198 0 0 1 84.36523,248.0957 163.73198,163.73198 0 0 1 248.09766,84.36328 Z" />
    <g transform="matrix(4,0,0,4,-973.78949,-1377.3185)" id="icon-logo-mh">
       <path d="m 283.92578,391.77347 5.87891,0 7.4414,19.84375 7.48047,-19.84375 5.87891,0 0,29.16015 -3.84766,0 0,-25.60546 -7.51953,20 -3.96484,0 -7.51953,-20 0,25.60546 -3.82813,0 0,-29.16015 z" />
       <path d="m 327.0173,420.88898 -3.63281,0 0,-13.32032 -13.00781,0 0,13.32032 -3.63281,0 0,-28.55469 3.63281,0 0,12.03125 13.00781,0 0,-12.03125 3.63281,0 0,28.55469 z" />
    </g>
  </g>
</svg>
